<svg width="92" height="102" viewBox="0 0 92 102" fill="none" xmlns="http://www.w3.org/2000/svg">
<g id="follower_cell_avatar" filter="url(#filter0_d_31_1087)">
<path d="M41 1.88675C44.094 0.100423 47.906 0.100423 51 1.88675L84.3013 21.1132C87.3953 22.8996 89.3013 26.2008 89.3013 29.7735V68.2265C89.3013 71.7992 87.3953 75.1004 84.3013 76.8867L51 96.1133C47.906 97.8996 44.094 97.8996 41 96.1133L7.69873 76.8867C4.60472 75.1004 2.69873 71.7992 2.69873 68.2265V29.7735C2.69873 26.2008 4.60472 22.8996 7.69873 21.1132L41 1.88675Z" fill="#EAEEE8"/>
<path d="M42.25 4.05181C44.5705 2.71207 47.4295 2.71207 49.75 4.05181L83.0513 23.2783C85.3718 24.6181 86.8013 27.094 86.8013 29.7735V68.2265C86.8013 70.906 85.3718 73.3819 83.0513 74.7217L49.75 93.9482C47.4295 95.2879 44.5705 95.2879 42.25 93.9482L8.94873 74.7217C6.62822 73.3819 5.19873 70.906 5.19873 68.2265V29.7735C5.19873 27.094 6.62822 24.6181 8.94873 23.2783L42.25 4.05181Z" stroke="#119A48" stroke-width="5"/>
</g>
<defs>
<filter id="filter0_d_31_1087" x="0.69873" y="0.547119" width="90.6025" height="100.906" filterUnits="userSpaceOnUse" color-interpolation-filters="sRGB">
<feFlood flood-opacity="0" result="BackgroundImageFix"/>
<feColorMatrix in="SourceAlpha" type="matrix" values="0 0 0 0 0 0 0 0 0 0 0 0 0 0 0 0 0 0 127 0" result="hardAlpha"/>
<feOffset dy="2"/>
<feGaussianBlur stdDeviation="1"/>
<feComposite in2="hardAlpha" operator="out"/>
<feColorMatrix type="matrix" values="0 0 0 0 0 0 0 0 0 0 0 0 0 0 0 0 0 0 0.25 0"/>
<feBlend mode="normal" in2="BackgroundImageFix" result="effect1_dropShadow_31_1087"/>
<feBlend mode="normal" in="SourceGraphic" in2="effect1_dropShadow_31_1087" result="shape"/>
</filter>
</defs>
</svg>
