<svg width="100%" height="100%" viewBox="0 0 548 618" fill="none" xmlns="http://www.w3.org/2000/svg">
<g filter="url(#filter0_d_30_707)">
<path d="M254 5.54701C266.376 -1.5983 281.624 -1.5983 294 5.54701L525.066 138.953C537.442 146.098 545.066 159.303 545.066 173.594V440.406C545.066 454.697 537.442 467.902 525.066 475.047L294 608.453C281.624 615.598 266.376 615.598 254 608.453L22.934 475.047C10.558 467.902 2.93405 454.697 2.93405 440.406V173.594C2.93405 159.303 10.558 146.098 22.9341 138.953L254 5.54701Z" fill="#E06B00"/>
<path d="M259 14.2073C268.282 8.84828 279.718 8.84828 289 14.2073L520.066 147.613C529.348 152.972 535.066 162.876 535.066 173.594V440.406C535.066 451.124 529.348 461.028 520.066 466.387L289 599.793C279.718 605.152 268.282 605.152 259 599.793L27.934 466.387C18.652 461.028 12.9341 451.124 12.9341 440.406V173.594C12.9341 162.876 18.652 152.972 27.9341 147.613L259 14.2073Z" stroke="#A5560F" stroke-width="20"/>
</g>
<defs>
<filter id="filter0_d_30_707" x="0.934052" y="0.188049" width="100%" height="100%" filterUnits="userSpaceOnUse" color-interpolation-filters="sRGB">
<feFlood flood-opacity="0" result="BackgroundImageFix"/>
<feColorMatrix in="SourceAlpha" type="matrix" values="0 0 0 0 0 0 0 0 0 0 0 0 0 0 0 0 0 0 127 0" result="hardAlpha"/>
<feOffset dy="2"/>
<feGaussianBlur stdDeviation="1"/>
<feComposite in2="hardAlpha" operator="out"/>
<feColorMatrix type="matrix" values="0 0 0 0 0 0 0 0 0 0 0 0 0 0 0 0 0 0 0.25 0"/>
<feBlend mode="normal" in2="BackgroundImageFix" result="effect1_dropShadow_30_707"/>
<feBlend mode="normal" in="SourceGraphic" in2="effect1_dropShadow_30_707" result="shape"/>
</filter>
</defs>
</svg>
