<svg width="326" height="366" viewBox="0 0 326 366" fill="none" xmlns="http://www.w3.org/2000/svg">
<g filter="url(#filter0_d_30_550)">
<path d="M146 4.66025C155.282 -0.698731 166.718 -0.698732 176 4.66025L306.215 79.8397C315.497 85.1987 321.215 95.1025 321.215 105.821V256.18C321.215 266.897 315.497 276.801 306.215 282.16L176 357.34C166.718 362.699 155.282 362.699 146 357.34L15.7853 282.16C6.50326 276.801 0.785294 266.897 0.785294 256.18V105.821C0.785294 95.1025 6.50326 85.1987 15.7853 79.8397L146 4.66025Z" fill="#E06B00"/>
<path d="M151 13.3205C157.188 9.74785 164.812 9.74785 171 13.3205L301.215 88.5C307.403 92.0727 311.215 98.6752 311.215 105.821V256.18C311.215 263.325 307.403 269.927 301.215 273.5L171 348.68C164.812 352.252 157.188 352.252 151 348.68L20.7853 273.5C14.5973 269.927 10.7853 263.325 10.7853 256.18V105.821C10.7853 98.6752 14.5973 92.0727 20.7853 88.5L151 13.3205Z" stroke="#A5560F" stroke-width="20"/>
</g>
<defs>
<filter id="filter0_d_30_550" x="0.785294" y="0.641014" width="324.429" height="364.718" filterUnits="userSpaceOnUse" color-interpolation-filters="sRGB">
<feFlood flood-opacity="0" result="BackgroundImageFix"/>
<feColorMatrix in="SourceAlpha" type="matrix" values="0 0 0 0 0 0 0 0 0 0 0 0 0 0 0 0 0 0 127 0" result="hardAlpha"/>
<feOffset dx="2" dy="2"/>
<feGaussianBlur stdDeviation="1"/>
<feComposite in2="hardAlpha" operator="out"/>
<feColorMatrix type="matrix" values="0 0 0 0 0 0 0 0 0 0 0 0 0 0 0 0 0 0 0.5 0"/>
<feBlend mode="normal" in2="BackgroundImageFix" result="effect1_dropShadow_30_550"/>
<feBlend mode="normal" in="SourceGraphic" in2="effect1_dropShadow_30_550" result="shape"/>
</filter>
</defs>
</svg>
